<svg width="48" height="48" viewBox="0 0 48 48" fill="none" xmlns="http://www.w3.org/2000/svg">
<rect x="1" y="1" width="46" height="46" stroke="white" stroke-width="2"/>
<path d="M24.0029 17.8467C20.5969 17.8467 17.8496 20.594 17.8496 24C17.8496 27.406 20.5969 30.1533 24.0029 30.1533C27.4089 30.1533 30.1562 27.406 30.1562 24C30.1562 20.594 27.4089 17.8467 24.0029 17.8467ZM24.0029 28.0004C21.8019 28.0004 20.0025 26.2064 20.0025 24C20.0025 21.7936 21.7965 19.9996 24.0029 19.9996C26.2093 19.9996 28.0034 21.7936 28.0034 24C28.0034 26.2064 26.204 28.0004 24.0029 28.0004ZM31.8431 17.595C31.8431 18.3929 31.2005 19.0302 30.4079 19.0302C29.61 19.0302 28.9727 18.3876 28.9727 17.595C28.9727 16.8024 29.6153 16.1598 30.4079 16.1598C31.2005 16.1598 31.8431 16.8024 31.8431 17.595ZM35.9186 19.0517C35.8275 17.1291 35.3884 15.4261 33.9799 14.023C32.5768 12.6199 30.8738 12.1807 28.9513 12.0843C26.9698 11.9719 21.0307 11.9719 19.0492 12.0843C17.132 12.1754 15.429 12.6145 14.0205 14.0176C12.6121 15.4207 12.1783 17.1237 12.0819 19.0463C11.9694 21.0278 11.9694 26.9669 12.0819 28.9483C12.1729 30.8709 12.6121 32.5739 14.0205 33.977C15.429 35.3801 17.1266 35.8193 19.0492 35.9157C21.0307 36.0281 26.9698 36.0281 28.9513 35.9157C30.8738 35.8246 32.5768 35.3855 33.9799 33.977C35.383 32.5739 35.8222 30.8709 35.9186 28.9483C36.031 26.9669 36.031 21.0331 35.9186 19.0517ZM33.3587 31.0744C32.941 32.1241 32.1323 32.9327 31.0773 33.3558C29.4975 33.9824 25.7488 33.8378 24.0029 33.8378C22.2571 33.8378 18.503 33.977 16.9285 33.3558C15.8788 32.9381 15.0702 32.1294 14.6471 31.0744C14.0205 29.4946 14.1651 25.7458 14.1651 24C14.1651 22.2542 14.0259 18.5001 14.6471 16.9256C15.0648 15.8759 15.8735 15.0673 16.9285 14.6442C18.5083 14.0176 22.2571 14.1622 24.0029 14.1622C25.7488 14.1622 29.5029 14.023 31.0773 14.6442C32.127 15.0619 32.9356 15.8706 33.3587 16.9256C33.9853 18.5054 33.8407 22.2542 33.8407 24C33.8407 25.7458 33.9853 29.4999 33.3587 31.0744Z" fill="white"/>
</svg>
