<svg width="48" height="48" viewBox="0 0 48 48" fill="none" xmlns="http://www.w3.org/2000/svg">
<rect x="1" y="1" width="46" height="46" stroke="white" stroke-width="2"/>
<path d="M34.5889 29.6789C34.3724 30.184 33.4571 30.5551 31.7901 30.8139C31.7043 30.9297 31.6332 31.4242 31.5197 31.8093C31.4522 32.0406 31.2861 32.1779 31.0158 32.1779L31.0034 32.1776C30.6131 32.1776 30.2055 31.998 29.3891 31.998C28.2871 31.998 27.9073 32.2491 27.0517 32.8535C26.1446 33.4949 25.2745 34.0486 23.9758 33.9919C22.6609 34.0889 21.5648 33.2894 20.948 32.8533C20.0873 32.2448 19.7086 31.9981 18.6111 31.9981C17.8273 31.9981 17.334 32.1942 16.9968 32.1942C16.6613 32.1942 16.5309 31.9897 16.4806 31.8186C16.3683 31.4368 16.2977 30.9351 16.2096 30.8159C15.3504 30.6826 13.4128 30.3446 13.3635 29.4801C13.3575 29.3714 13.3918 29.2644 13.4599 29.1795C13.528 29.0947 13.625 29.0379 13.7323 29.0202C16.6235 28.5442 17.9258 25.5756 17.9799 25.4495C17.983 25.4422 17.9864 25.4352 17.9898 25.4281C18.144 25.115 18.1786 24.8527 18.0921 24.6489C17.8823 24.1546 16.9756 23.9773 16.5941 23.8264C15.6087 23.4372 15.4716 22.9901 15.5299 22.6836C15.6311 22.1502 16.4326 21.822 16.9011 22.0415C17.2717 22.2152 17.601 22.3031 17.8795 22.3031C18.0882 22.3031 18.2208 22.2531 18.2934 22.2129C18.2085 20.7198 17.9983 18.586 18.5297 17.3943C19.933 14.2482 22.9073 14.0037 23.7849 14.0037C23.8241 14.0037 24.1647 14 24.205 14C26.3718 14 28.4537 15.1127 29.4704 17.3923C30.0013 18.5828 29.7924 20.7078 29.7071 22.2126C29.7728 22.2488 29.8881 22.2933 30.0644 22.3015C30.3302 22.2896 30.6384 22.2022 30.9813 22.0415C31.2342 21.9232 31.5799 21.9392 31.8323 22.0439L31.8335 22.0443C32.2272 22.185 32.475 22.4688 32.4812 22.7868C32.4889 23.1918 32.1271 23.5416 31.406 23.8264C31.318 23.861 31.2109 23.8951 31.0971 23.9313C30.69 24.0603 30.0749 24.2556 29.9081 24.6489C29.8217 24.8527 29.8559 25.1147 30.0103 25.4279C30.0139 25.4349 30.0172 25.4421 30.0202 25.4493C30.0743 25.5752 31.3754 28.5432 34.268 29.0199C34.535 29.0639 34.7318 29.3472 34.5889 29.6789Z" fill="white"/>
</svg>
