<svg width="48" height="48" viewBox="0 0 48 48" fill="none" xmlns="http://www.w3.org/2000/svg">
<rect x="1" y="1" width="46" height="46" stroke="white" stroke-width="2"/>
<path d="M33.7813 18.9844C33.7969 19.2031 33.7969 19.4219 33.7969 19.6406C33.7969 26.3125 28.7188 34 19.4375 34C16.5781 34 13.9219 33.1718 11.6875 31.7344C12.0938 31.7812 12.4844 31.7969 12.9063 31.7969C15.2656 31.7969 17.4375 31 19.1719 29.6406C16.9532 29.5938 15.0938 28.1406 14.4531 26.1406C14.7657 26.1875 15.0781 26.2187 15.4063 26.2187C15.8594 26.2187 16.3126 26.1562 16.7344 26.0469C14.4219 25.5781 12.6875 23.5469 12.6875 21.0937V21.0313C13.3593 21.4063 14.1407 21.6406 14.9687 21.6719C13.6093 20.7656 12.7188 19.2187 12.7188 17.4687C12.7188 16.5312 12.9687 15.6719 13.4062 14.9219C15.8906 17.9843 19.625 19.9843 23.8125 20.2031C23.7344 19.8281 23.6875 19.4375 23.6875 19.0469C23.6875 16.2656 25.9375 14 28.7344 14C30.1875 14 31.5 14.6094 32.4219 15.5937C33.5624 15.375 34.6562 14.9531 35.625 14.375C35.2499 15.5469 34.4531 16.5313 33.4062 17.1562C34.4219 17.0469 35.4062 16.7656 36.3125 16.375C35.6251 17.375 34.7657 18.2656 33.7813 18.9844Z" fill="white"/>
</svg>
